<?xml version="1.0" encoding="utf-8"?>
<!-- Generator: Adobe Illustrator 27.5.0, SVG Export Plug-In . SVG Version: 6.00 Build 0)  -->
<svg version="1.1" xmlns="http://www.w3.org/2000/svg" xmlns:xlink="http://www.w3.org/1999/xlink" x="0px" y="0px"
	 viewBox="0 0 595.276 841.89" style="enable-background:new 0 0 595.276 841.89;" xml:space="preserve">
<g id="BACKGROUND">
	<rect x="-8.504" y="-8.504" style="fill:#FFFFFF;" width="612.283" height="858.898"/>
</g>
<g id="OBJECTS">
	<rect style="fill:#FFFFFF;" width="595.276" height="841.89"/>
	<path style="fill:#B1DBF2;" d="M603.779-8.504H63.336v115.417h132.905c22.859,0,44.783-7.201,60.947-20.019l64.83-51.41
		c16.164-12.818,38.087-20.019,60.947-20.019h220.816V-8.504z"/>
	<path style="fill:#0A405E;" d="M603.779-8.504H-8.504v115.417h132.905c22.86,0,44.782-7.201,60.947-20.019l64.829-51.41
		c16.164-12.818,38.087-20.019,60.947-20.019h292.656V-8.504z"/>
	<path style="fill:#B1DBF2;" d="M603.779,145.224h-267.27c-9.357,0-16.942,6.788-16.942,15.162s7.585,15.163,16.942,15.163h267.27
		V145.224z"/>
	<g>
		<polygon style="fill:none;stroke:#0A405E;stroke-miterlimit:10;" points="40.984,160.386 40.984,154.951 45.691,157.668 
			50.398,160.386 45.691,163.104 40.984,165.822 		"/>
		<polygon style="fill:none;stroke:#0A405E;stroke-miterlimit:10;" points="68.806,160.386 68.806,154.951 73.513,157.668 
			78.22,160.386 73.513,163.104 68.806,165.822 		"/>
		<polygon style="fill:none;stroke:#0A405E;stroke-miterlimit:10;" points="96.628,160.386 96.628,154.951 101.335,157.668 
			106.043,160.386 101.335,163.104 96.628,165.822 		"/>
		<polygon style="fill:none;stroke:#0A405E;stroke-miterlimit:10;" points="124.45,160.386 124.45,154.951 129.158,157.668 
			133.865,160.386 129.158,163.104 124.45,165.822 		"/>
		<polygon style="fill:none;stroke:#0A405E;stroke-miterlimit:10;" points="152.272,160.386 152.272,154.951 156.98,157.668 
			161.687,160.386 156.98,163.104 152.272,165.822 		"/>
		<polygon style="fill:none;stroke:#0A405E;stroke-miterlimit:10;" points="180.095,160.386 180.095,154.951 184.802,157.668 
			189.509,160.386 184.802,163.104 180.095,165.822 		"/>
		<polygon style="fill:none;stroke:#0A405E;stroke-miterlimit:10;" points="207.917,160.386 207.917,154.951 212.624,157.668 
			217.331,160.386 212.624,163.104 207.917,165.822 		"/>
		<polygon style="fill:none;stroke:#0A405E;stroke-miterlimit:10;" points="235.739,160.386 235.739,154.951 240.446,157.668 
			245.153,160.386 240.446,163.104 235.739,165.822 		"/>
		<polygon style="fill:none;stroke:#0A405E;stroke-miterlimit:10;" points="263.561,160.386 263.561,154.951 268.268,157.668 
			272.975,160.386 268.268,163.104 263.561,165.822 		"/>
		<polygon style="fill:none;stroke:#0A405E;stroke-miterlimit:10;" points="291.383,160.386 291.383,154.951 296.09,157.668 
			300.798,160.386 296.09,163.104 291.383,165.822 		"/>
	</g>
	<path style="fill:#0A405E;" d="M541.932,320.547H50.235c-7.288,0-13.251-5.963-13.251-13.251v-2.242
		c0-7.288,5.963-13.251,13.251-13.251h491.697c7.288,0,13.251,5.963,13.251,13.251v2.242
		C555.183,314.584,549.22,320.547,541.932,320.547z"/>
	<g>
		<polygon style="fill:#B1DBF2;" points="455.359,266.617 453.985,266.617 483.201,234.684 484.574,234.684 		"/>
		<polygon style="fill:#B1DBF2;" points="463.956,266.617 462.583,266.617 491.798,234.684 493.172,234.684 		"/>
		<polygon style="fill:#B1DBF2;" points="472.554,266.617 471.18,266.617 500.396,234.684 501.769,234.684 		"/>
		<polygon style="fill:#B1DBF2;" points="481.151,266.617 479.778,266.617 508.993,234.684 510.367,234.684 		"/>
		<polygon style="fill:#B1DBF2;" points="489.749,266.617 488.375,266.617 517.591,234.684 518.964,234.684 		"/>
		<polygon style="fill:#B1DBF2;" points="498.346,266.617 496.973,266.617 526.188,234.684 527.562,234.684 		"/>
		<polygon style="fill:#B1DBF2;" points="506.943,266.617 505.57,266.617 534.786,234.684 536.159,234.684 		"/>
		<polygon style="fill:#B1DBF2;" points="515.541,266.617 514.167,266.617 543.383,234.684 544.756,234.684 		"/>
		<polygon style="fill:#B1DBF2;" points="524.138,266.617 522.765,266.617 551.98,234.684 553.354,234.684 		"/>
	</g>
	<g>
		
			<line style="fill:none;stroke:#4D4C4C;stroke-width:0.5;stroke-miterlimit:10;" x1="54.076" y1="391.87" x2="530.277" y2="391.87"/>
		
			<line style="fill:none;stroke:#4D4C4C;stroke-width:0.5;stroke-miterlimit:10;" x1="53.103" y1="435.03" x2="529.304" y2="435.03"/>
		
			<line style="fill:none;stroke:#4D4C4C;stroke-width:0.5;stroke-miterlimit:10;" x1="54.076" y1="478.611" x2="530.277" y2="478.611"/>
		
			<line style="fill:none;stroke:#4D4C4C;stroke-width:0.5;stroke-miterlimit:10;" x1="52.489" y1="523.832" x2="528.691" y2="523.832"/>
		
			<line style="fill:none;stroke:#4D4C4C;stroke-width:0.5;stroke-miterlimit:10;" x1="53.304" y1="569.305" x2="529.505" y2="569.305"/>
		
			<line style="fill:none;stroke:#4D4C4C;stroke-width:0.5;stroke-miterlimit:10;" x1="52.489" y1="614.779" x2="528.691" y2="614.779"/>
	</g>
	<path style="fill:#B1DBF2;" d="M-8.504,850.574h540.443V735.157H399.035c-22.859,0-44.783,7.201-60.947,20.019l-64.83,51.411
		c-16.164,12.818-38.087,20.019-60.947,20.019H-8.504V850.574z"/>
	<path style="fill:#0A405E;" d="M-8.504,850.574h612.283V735.157H470.875c-22.859,0-44.783,7.201-60.947,20.019l-64.83,51.411
		c-16.164,12.818-38.087,20.019-60.947,20.019H-8.504V850.574z"/>
	
		<line style="fill:none;stroke:#4D4C4C;stroke-width:0.5;stroke-miterlimit:10;" x1="57.622" y1="748.728" x2="187.386" y2="748.728"/>
	<path style="fill:#B1DBF2;" d="M603.779,634.336c-10.801,0-19.557-8.756-19.557-19.557c0-10.801,8.756-19.557,19.557-19.557
		v-22.266c-23.099,0-41.824,18.725-41.824,41.824c0,23.098,18.725,41.823,41.824,41.824V634.336z"/>
	<path style="fill:#B1DBF2;" d="M-8.504,203.37c10.801,0,19.557,8.756,19.557,19.557c0,10.801-8.756,19.557-19.557,19.557v22.267
		c23.099,0,41.824-18.725,41.824-41.824c0-23.098-18.725-41.824-41.824-41.824V203.37z"/>
</g>
<g id="TEXTS">
	<g>
		<g>
			<g>
				<text transform="matrix(1 0 0 1 402.7847 648.3371)"><tspan x="0" y="0" style="fill:#4D4C4C; font-family:'Poppins-Regular'; font-size:9.8856px;">Sub Total:</tspan><tspan x="0" y="23.726" style="fill:#4D4C4C; font-family:'Poppins-Regular'; font-size:9.8856px;">Tax:</tspan><tspan x="0" y="47.451" style="fill:#4D4C4C; font-family:'Poppins-SemiBold'; font-size:9.8856px;">Total:</tspan></text>
			</g>
			<g>
				<text transform="matrix(1 0 0 1 498.6187 649.5578)"><tspan x="0" y="0" style="fill:#4D4C4C; font-family:'Poppins-Regular'; font-size:9.8856px;">$00.00</tspan><tspan x="11.062" y="23.726" style="fill:#4D4C4C; font-family:'Poppins-Regular'; font-size:9.8856px;">0.0%</tspan><tspan x="-7.909" y="47.451" style="fill:#4D4C4C; font-family:'Poppins-SemiBold'; font-size:9.8856px;">$000.00</tspan></text>
			</g>
		</g>
		
			<line style="fill:none;stroke:#4D4C4C;stroke-width:0.5;stroke-miterlimit:10;" x1="402.175" y1="682.875" x2="531.939" y2="682.875"/>
	</g>
	<g>
		<g>
			<text transform="matrix(1 0 0 1 58.7439 648.7668)" style="fill:#4D4C4C; font-family:'Poppins-SemiBold'; font-size:9.8856px;">Terms &amp; Conditions</text>
		</g>
		<g>
			<rect x="58.744" y="657.348" style="fill:none;" width="140.08" height="25.745"/>
			<text transform="matrix(1 0 0 1 58.7439 664.6633)"><tspan x="0" y="0" style="fill:#4D4C4C; font-family:'Poppins-Regular'; font-size:9.8856px;">Lorem ipsum dolor sit amet, </tspan><tspan x="0" y="11.862" style="fill:#4D4C4C; font-family:'Poppins-Regular'; font-size:9.8856px;">consectetuer adipiscing elit.</tspan></text>
		</g>
	</g>
	<g>
		<g>
			<text transform="matrix(1 0 0 1 86.517 769.6078)" style="fill:#4D4C4C; font-family:'Poppins-SemiBold'; font-size:11.8627px;">Zhevanka R</text>
		</g>
		<g>
			<text transform="matrix(1 0 0 1 103.0796 785.5092)" style="fill:#4D4C4C; font-family:'Poppins-Regular'; font-size:9.8856px;">Director</text>
		</g>
	</g>
	<g>
		<g>
			<text transform="matrix(1 0 0 1 54.0756 202.2959)" style="fill:#4D4C4C; font-family:'Poppins-Regular'; font-size:11.9706px;">Invoice to:</text>
		</g>
		<g>
			
				<text transform="matrix(1 0 0 1 53.8674 222.9268)" style="fill:#4D4C4C; font-family:'Poppins-SemiBold'; font-size:11.8627px;">Rivay Ravs</text>
		</g>
		<g>
			<text transform="matrix(1 0 0 1 54.0756 243.0977)"><tspan x="0" y="0" style="fill:#4D4C4C; font-family:'Poppins-Regular'; font-size:11.9706px;">Jl Ciracas KDW No 27</tspan><tspan x="0" y="21.547" style="fill:#4D4C4C; font-family:'Poppins-Regular'; font-size:11.9706px;">Location, Country</tspan></text>
		</g>
	</g>
	<g>
		<g>
			<text transform="matrix(1 0 0 1 55.2773 310.5572)" style="fill:#FFFFFF; font-family:'Poppins-Bold'; font-size:10.7845px;">Qty.</text>
		</g>
		<g>
			<text transform="matrix(1 0 0 1 185.7021 310.5591)" style="fill:#FFFFFF; font-family:'Poppins-Bold'; font-size:10.7845px;">Item Description</text>
		</g>
		<g>
			<text transform="matrix(1 0 0 1 395.4736 310.5591)" style="fill:#FFFFFF; font-family:'Poppins-Bold'; font-size:10.7845px;">Price</text>
		</g>
		<g>
			<text transform="matrix(1 0 0 1 502.5381 310.5601)" style="fill:#FFFFFF; font-family:'Poppins-Bold'; font-size:10.7845px;">Total</text>
		</g>
	</g>
	<g>
		<g>
			<text transform="matrix(1 0 0 1 61.2002 363.8384)" style="fill:#4D4C4C; font-family:'Poppins-Regular'; font-size:10.7845px;">1</text>
		</g>
		<g>
			<rect x="133.893" y="355.578" style="fill:none;" width="192.193" height="16.521"/>
			
				<text transform="matrix(1 0 0 1 133.8926 363.5591)" style="fill:#4D4C4C; font-family:'Poppins-Regular'; font-size:10.7845px;">Lorem ipsum dolor sit amet </text>
		</g>
		<g>
			
				<text transform="matrix(1 0 0 1 393.3164 363.8384)" style="fill:#4D4C4C; font-family:'Poppins-Regular'; font-size:10.7845px;">$00.00</text>
		</g>
		<g>
			
				<text transform="matrix(1 0 0 1 501.7694 363.8375)" style="fill:#4D4C4C; font-family:'Poppins-Regular'; font-size:10.7845px;">$00.00</text>
		</g>
	</g>
	<g>
		<g>
			<rect x="133.893" y="402.617" style="fill:none;" width="230.191" height="21.477"/>
			
				<text transform="matrix(1 0 0 1 133.8926 410.5972)" style="fill:#4D4C4C; font-family:'Poppins-Regular'; font-size:10.7845px;">Lorem ipsum dolor sit amet, consectetuer </text>
		</g>
		<g>
			<text transform="matrix(1 0 0 1 60.9258 411.1509)" style="fill:#4D4C4C; font-family:'Poppins-Regular'; font-size:10.7845px;">1</text>
		</g>
		<g>
			
				<text transform="matrix(1 0 0 1 395.4736 411.1509)" style="fill:#4D4C4C; font-family:'Poppins-Regular'; font-size:10.7845px;">$00.00</text>
		</g>
		<g>
			
				<text transform="matrix(1 0 0 1 502.5381 411.1509)" style="fill:#4D4C4C; font-family:'Poppins-Regular'; font-size:10.7845px;">$00.00</text>
		</g>
	</g>
	<g>
		<g>
			<rect x="132.837" y="449.702" style="fill:none;" width="230.191" height="21.477"/>
			
				<text transform="matrix(1 0 0 1 132.8369 457.6807)" style="fill:#4D4C4C; font-family:'Poppins-Regular'; font-size:10.7845px;">Lorem ipsum dolor sit amet, consectetuer </text>
		</g>
		<g>
			<text transform="matrix(1 0 0 1 59.8691 458.2364)" style="fill:#4D4C4C; font-family:'Poppins-Regular'; font-size:10.7845px;">1</text>
		</g>
		<g>
			
				<text transform="matrix(1 0 0 1 395.4736 458.2364)" style="fill:#4D4C4C; font-family:'Poppins-Regular'; font-size:10.7845px;">$00.00</text>
		</g>
		<g>
			
				<text transform="matrix(1 0 0 1 501.7693 458.2364)" style="fill:#4D4C4C; font-family:'Poppins-Regular'; font-size:10.7845px;">$00.00</text>
		</g>
	</g>
	<g>
		<g>
			<rect x="133.893" y="497.245" style="fill:none;" width="230.191" height="21.477"/>
			
				<text transform="matrix(1 0 0 1 133.8926 505.2246)" style="fill:#4D4C4C; font-family:'Poppins-Regular'; font-size:10.7845px;">Lorem ipsum dolor sit amet, consectetuer </text>
		</g>
		<g>
			<text transform="matrix(1 0 0 1 60.9258 505.7803)" style="fill:#4D4C4C; font-family:'Poppins-Regular'; font-size:10.7845px;">1</text>
		</g>
		<g>
			
				<text transform="matrix(1 0 0 1 395.4736 505.7794)" style="fill:#4D4C4C; font-family:'Poppins-Regular'; font-size:10.7845px;">$00.00</text>
		</g>
		<g>
			
				<text transform="matrix(1 0 0 1 502.5381 505.7803)" style="fill:#4D4C4C; font-family:'Poppins-Regular'; font-size:10.7845px;">$00.00</text>
		</g>
	</g>
	<g>
		<g>
			<rect x="132.172" y="546.578" style="fill:none;" width="230.191" height="21.477"/>
			
				<text transform="matrix(1 0 0 1 132.1709 554.5576)" style="fill:#4D4C4C; font-family:'Poppins-Regular'; font-size:10.7845px;">Lorem ipsum dolor sit amet, consectetuer </text>
		</g>
		<g>
			<text transform="matrix(1 0 0 1 59.2041 555.1133)" style="fill:#4D4C4C; font-family:'Poppins-Regular'; font-size:10.7845px;">1</text>
		</g>
		<g>
			
				<text transform="matrix(1 0 0 1 395.4736 555.1133)" style="fill:#4D4C4C; font-family:'Poppins-Regular'; font-size:10.7845px;">$00.00</text>
		</g>
		<g>
			
				<text transform="matrix(1 0 0 1 501.7694 555.1133)" style="fill:#4D4C4C; font-family:'Poppins-Regular'; font-size:10.7845px;">$00.00</text>
		</g>
	</g>
	<g>
		<text transform="matrix(1 0 0 1 438.9612 773.9985)"><tspan x="0" y="0" style="fill:#FFFFFF; font-family:'Poppins-Regular'; font-size:9.8856px;">Your Address Here</tspan><tspan x="-3.243" y="17.794" style="fill:#FFFFFF; font-family:'Poppins-Regular'; font-size:9.8856px;">+022 343 555 4545</tspan><tspan x="-20.779" y="35.588" style="fill:#FFFFFF; font-family:'Poppins-Regular'; font-size:9.8856px;">www.yourwebsite.com</tspan></text>
	</g>
	<g>
		<g>
			
				<text transform="matrix(1 0 0 1 336.7552 163.4612)" style="fill:#4D4C4C; font-family:'Poppins-Regular'; font-size:11.8627px;">Invoice: 0001593</text>
		</g>
		<g>
			
				<text transform="matrix(1 0 0 1 454.7455 163.4612)" style="fill:#4D4C4C; font-family:'Poppins-SemiBold'; font-size:11.8627px;">Date   01/05/2029</text>
		</g>
	</g>
	<text transform="matrix(1 0 0 1 346.5583 106.9127)" style="fill:#0A405E; font-family:'Poppins-Bold'; font-size:52.4888px;">INVOICE</text>
	<g>
		<g>
			<text transform="matrix(1 0 0 1 91.6831 51.2582)" style="fill:#FFFFFF; font-family:'Poppins-Bold'; font-size:15.5739px;">YOUR</text>
			<text transform="matrix(1 0 0 1 91.6831 65.3808)" style="fill:#FFFFFF; font-family:'Poppins-Bold'; font-size:15.5739px;">LOGO</text>
		</g>
		<g>
			<path style="fill:#FFFFFF;" d="M67.191,35.157c-10.445,0-18.942,8.498-18.942,18.942s8.497,18.942,18.942,18.942
				c10.445,0,18.942-8.498,18.942-18.942S77.636,35.157,67.191,35.157z M67.191,39.075c7.649,0,13.977,5.748,14.903,13.15
				l-3.401,0.685c-0.683,0.138-1.371,0.204-2.056,0.2c-1.8-0.011-3.469-0.952-4.492-2.433c-1.086-1.572-2.899-2.601-4.953-2.601
				c-2.055,0-3.867,1.03-4.953,2.601c-1.023,1.48-2.692,2.422-4.491,2.433c-0.686,0.004-1.374-0.062-2.057-0.199l-3.401-0.685
				C53.214,44.823,59.542,39.075,67.191,39.075z M65.232,68.991c-6.663-0.872-11.964-6.123-12.911-12.762l2.595,0.523
				c0.926,0.186,1.859,0.279,2.788,0.279c0.733,0,1.464-0.059,2.186-0.175c1.001-0.16,1.983,0.249,2.624,1.035
				c0.318,0.39,0.684,0.74,1.089,1.04c1.031,0.764,1.629,1.978,1.629,3.261V68.991z M67.191,56.851c-1.52,0-2.752-1.232-2.752-2.752
				c0-1.52,1.232-2.752,2.752-2.752c1.52,0,2.752,1.232,2.752,2.752C69.943,55.619,68.711,56.851,67.191,56.851z M69.15,68.991
				v-6.799c0-1.282,0.598-2.496,1.628-3.26c0.406-0.301,0.774-0.652,1.092-1.044c0.632-0.777,1.599-1.205,2.587-1.044
				c1.65,0.269,3.341,0.243,5.009-0.093l2.595-0.523C81.115,62.868,75.813,68.119,69.15,68.991z"/>
		</g>
	</g>
</g>
</svg>
